<?xml version="1.0" standalone="no"?>
<!DOCTYPE svg PUBLIC "-//W3C//DTD SVG 20010904//EN"
 "http://www.w3.org/TR/2001/REC-SVG-20010904/DTD/svg10.dtd">
<svg version="1.0" xmlns="http://www.w3.org/2000/svg"
 width="400.000000pt" height="300.000000pt" viewBox="0 0 400.000000 300.000000"
 preserveAspectRatio="xMidYMid meet">

<g transform="translate(0.000000,300.000000) scale(0.100000,-0.100000)"
fill="#000000" stroke="none">
<path d="M1305 2234 c-335 -101 -621 -192 -634 -202 -37 -27 -61 -64 -71 -108
-13 -56 -13 -841 1 -902 7 -35 21 -61 45 -84 30 -31 60 -43 291 -112 142 -43
422 -128 623 -189 443 -134 436 -133 660 -64 80 24 354 106 610 182 256 76
481 146 500 157 20 10 47 35 60 55 l25 37 3 445 c2 320 0 458 -9 489 -12 43
-68 104 -105 115 -1219 362 -1238 367 -1314 366 -67 -1 -139 -20 -685 -185z
m1380 -102 c470 -141 603 -185 617 -202 17 -21 18 -56 18 -455 0 -401 -1 -434
-18 -455 -19 -24 -1 -18 -798 -255 -348 -104 -465 -135 -508 -135 -85 0 -1251
351 -1283 387 l-23 24 0 435 0 435 23 22 c16 16 122 53 382 131 198 60 468
142 600 182 225 69 245 74 315 70 62 -3 183 -36 675 -184z"/>
<path d="M1006 1790 c-84 -33 -116 -79 -116 -167 0 -102 54 -150 216 -193 99
-26 134 -50 134 -90 0 -42 -9 -59 -41 -75 -59 -31 -167 -12 -237 42 l-35 26
-33 -39 -33 -39 22 -19 c12 -10 51 -33 87 -50 57 -27 75 -31 150 -31 63 1 94
6 120 19 79 41 110 89 110 168 0 101 -42 139 -207 190 -118 36 -143 54 -143
103 0 40 37 75 81 75 28 0 29 2 29 50 0 48 -1 50 -27 50 -16 -1 -50 -9 -77
-20z"/>
<path d="M1162 1763 l3 -48 71 -3 c87 -3 81 4 165 -233 74 -210 105 -277 142
-304 26 -19 45 -20 273 -23 l244 -3 0 51 0 50 -228 0 c-221 0 -252 4 -252 31
0 4 85 9 189 11 l190 3 29 28 c57 54 120 245 96 285 -24 39 -50 42 -351 42
l-291 0 -12 35 c-14 44 -53 91 -91 110 -17 9 -57 15 -104 15 l-76 0 3 -47z
m433 -242 c0 -34 -30 -51 -51 -29 -25 24 -10 60 24 56 21 -2 27 -8 27 -27z
m134 10 c13 -24 -8 -55 -34 -50 -28 6 -42 34 -26 53 18 22 48 20 60 -3z m132
3 c17 -21 0 -49 -32 -49 -24 0 -36 23 -25 51 7 19 40 18 57 -2z m136 0 c8 -22
-10 -49 -32 -49 -10 0 -22 7 -28 16 -15 24 -1 49 28 49 15 0 28 -7 32 -16z
m-333 -106 c15 -24 -13 -53 -43 -43 -21 6 -29 43 -14 59 12 12 45 2 57 -16z
m133 6 c8 -22 -10 -49 -32 -49 -10 0 -22 7 -28 16 -15 24 -1 49 28 49 15 0 28
-7 32 -16z m128 -19 c0 -25 -4 -30 -24 -30 -32 0 -49 28 -31 50 7 9 23 15 34
13 16 -2 21 -10 21 -33z"/>
<path d="M2290 1641 c-77 -24 -151 -93 -169 -158 -28 -98 -6 -188 60 -255 127
-127 345 -87 415 77 10 24 17 65 17 101 -1 109 -68 199 -171 230 -49 15 -112
17 -152 5z m175 -121 c133 -129 -14 -347 -175 -261 -54 28 -80 74 -80 140 0
105 62 165 163 158 49 -3 62 -8 92 -37z"/>
<path d="M2860 1635 c-19 -9 -47 -28 -62 -42 l-28 -27 0 37 0 37 -50 0 -50 0
0 -331 0 -330 48 3 47 3 3 123 3 122 37 -29 c110 -86 257 -51 324 78 47 90 37
211 -23 284 -59 72 -175 105 -249 72z m128 -95 c49 -30 72 -75 72 -141 0 -66
-26 -112 -80 -140 -100 -54 -212 21 -212 140 0 56 19 99 62 135 40 33 109 36
158 6z"/>
<path d="M1615 1086 c-22 -33 -16 -65 17 -89 24 -18 30 -18 57 -7 64 26 48
112 -21 118 -30 3 -40 -1 -53 -22z"/>
<path d="M1820 1090 c-27 -27 -25 -56 6 -86 42 -43 104 -15 104 46 0 55 -70
80 -110 40z"/>
</g>
</svg>
